<?xml version="1.0" encoding="UTF-8" standalone="no" ?>
<!DOCTYPE svg PUBLIC "-//W3C//DTD SVG 1.1//EN" "http://www.w3.org/Graphics/SVG/1.1/DTD/svg11.dtd">
<svg xmlns="http://www.w3.org/2000/svg" xmlns:xlink="http://www.w3.org/1999/xlink" version="1.1" width="60" height="60" viewBox="0 0 60 60" xml:space="preserve">
<desc>Created with Fabric.js 3.6.6</desc>
<defs>
</defs>
<g transform="matrix(1 0 0 -1 29.92 29.11)"  >
<g style=""   >
		<g transform="matrix(1 0 0 1 20.13 -15.14)"  >
<path style="stroke: none; stroke-width: 1; stroke-dasharray: none; stroke-linecap: butt; stroke-dashoffset: 0; stroke-linejoin: miter; stroke-miterlimit: 4; fill: rgb(1,1,12); fill-rule: nonzero; opacity: 1;"  transform=" translate(-49.69, -7.54)" d="M 41.69158 14.65737 c 3.02152 -4.51246 6.04304 -9.02491 9.06455 -13.53737 h -1.29521 c 2.40533 3.96877 4.81066 7.93755 7.216 11.90632 c 0.34353 0.56682 0.68706 1.13365 1.03059 1.70047 c 0.49968 0.82446 1.79734 0.07144 1.29521 -0.75708 c -2.40533 -3.96877 -4.81066 -7.93755 -7.216 -11.90632 c -0.34353 -0.56682 -0.68706 -1.13365 -1.03059 -1.70047 c -0.3042 -0.50192 -0.98348 -0.46555 -1.29521 0 c -3.02152 4.51246 -6.04304 9.02491 -9.06455 13.53737 c -0.53858 0.80434 0.76019 1.55609 1.29521 0.75708 h 0 Z" stroke-linecap="round" />
</g>
		<g transform="matrix(1 0 0 1 -3.94 1.18)"  >
<path style="stroke: none; stroke-width: 1; stroke-dasharray: none; stroke-linecap: butt; stroke-dashoffset: 0; stroke-linejoin: miter; stroke-miterlimit: 4; fill: rgb(1,1,12); fill-rule: nonzero; opacity: 1;"  transform=" translate(-25.62, -23.85)" d="M 0.71568 45.06023 c 9.37198 -1.04012 18.03249 -6.72685 22.51593 -15.06658 c 2.28371 -4.24797 3.7883 -9.90346 1.05639 -14.31396 c -2.29329 -3.70239 -7.18429 -5.68536 -10.98375 -2.94419 c -3.95978 2.85684 -4.40562 8.09368 -3.36503 12.48745 c 0.63378 2.67602 1.65266 5.29118 2.6765 7.83978 c 0.87047 2.16683 1.84546 4.3184 3.17656 6.24615 c 2.6185 3.79221 6.56207 6.27436 11.28073 6.03263 c 4.95423 -0.25379 9.33462 -3.00957 12.42751 -6.77246 c 3.77097 -4.58787 6.06946 -10.3746 7.90237 -15.96445 c 2.07519 -6.32874 3.32934 -12.90027 3.82732 -19.53899 c 0.07223 -0.96288 -1.42812 -0.95825 -1.5 0 c -0.74496 9.93139 -3.20394 20.04629 -7.77523 28.93617 c -2.07757 4.04029 -4.87685 7.93778 -8.96377 10.12785 c -3.86989 2.07377 -8.72806 2.49879 -12.47997 -0.0623 c -3.46799 -2.36728 -5.32423 -6.47642 -6.78884 -10.26631 c -1.63486 -4.23046 -3.81938 -9.23633 -2.34844 -13.80326 c 0.63763 -1.9797 2.00611 -3.92282 3.99719 -4.71236 c 2.07019 -0.82091 4.32818 -0.15697 5.97527 1.24272 c 3.89475 3.30976 3.27051 8.88073 1.38336 13.10231 c -3.88123 8.6824 -12.59401 14.88436 -22.01409 15.92982 c -0.94888 0.10531 -0.95959 1.6065 0 1.5 H 0.71568 Z" stroke-linecap="round" />
</g>
</g>
</g>
</svg>